<svg width="106" height="40" viewBox="0 0 106 40" fill="none" xmlns="http://www.w3.org/2000/svg">
<path d="M20.3859 39.842C31.3687 39.842 40.2719 30.9231 40.2719 19.921C40.2719 8.91895 31.3687 0 20.3859 0C9.40324 0 0.5 8.91895 0.5 19.921C0.5 30.9231 9.40324 39.842 20.3859 39.842Z" fill="#EB0000"/>
<path d="M16.4096 9.13052C14.5898 9.13052 13.0955 10.6274 13.0955 12.4505C13.0955 14.296 14.5898 15.7704 16.4096 15.7704C18.2533 15.7704 19.7237 14.296 19.7237 12.4505C19.7237 10.6289 18.2533 9.13052 16.4096 9.13052Z" fill="white"/>
<path d="M42.9083 33.2022V9.9556H47.4515V18.5998C48.0183 17.8577 48.7199 17.2744 49.5603 16.8485C50.3994 16.4226 51.3843 16.2103 52.518 16.2103C54.784 16.2103 56.587 16.9581 57.9269 18.4536C59.2669 19.9491 59.9375 22.094 59.9375 24.8869C59.9375 27.6811 59.2669 29.8316 57.9269 31.337C56.587 32.8438 54.784 33.5957 52.518 33.5957C51.3198 33.5957 50.2843 33.361 49.413 32.8916C48.5417 32.4221 47.8219 31.784 47.2565 30.9758V33.2022H42.9083ZM51.2763 29.5674C52.5391 29.5674 53.5311 29.1752 54.2508 28.3881C54.9692 27.6024 55.3298 26.4344 55.3298 24.8841C55.3298 23.3337 54.9706 22.1727 54.2508 21.3969C53.5325 20.6224 52.5405 20.2345 51.2763 20.2345C50.0121 20.2345 49.0257 20.6224 48.3186 21.3969C47.61 22.1713 47.2565 23.3337 47.2565 24.8841C47.2565 26.4344 47.61 27.601 48.3186 28.3881C49.0257 29.1752 50.0121 29.5674 51.2763 29.5674Z" fill="#1A1A1A"/>
<path d="M62.7802 33.2022V9.9556H67.3234V33.2022H62.7802Z" fill="#1A1A1A"/>
<path d="M78.6 33.5957C75.9636 33.5957 73.8604 32.8592 72.2918 31.3862C70.7231 29.9132 69.9388 27.7472 69.9388 24.8869C69.9388 22.028 70.7231 19.8662 72.2918 18.4044C73.8604 16.9427 75.9636 16.2104 78.6 16.2104C81.2364 16.2104 83.3397 16.9412 84.9083 18.4044C86.477 19.8676 87.2613 22.028 87.2613 24.8869C87.2613 27.7472 86.477 29.9132 84.9083 31.3862C83.3397 32.8578 81.2364 33.5957 78.6 33.5957ZM78.6 29.5674C79.8853 29.5674 80.8829 29.1753 81.59 28.3881C82.2972 27.6024 82.6521 26.4344 82.6521 24.8841C82.6521 23.3337 82.2972 22.1727 81.59 21.3969C80.8815 20.6224 79.8853 20.2345 78.6 20.2345C77.3134 20.2345 76.3172 20.6224 75.6087 21.3969C74.9001 22.1713 74.5465 23.3337 74.5465 24.8841C74.5465 26.4344 74.9001 27.601 75.6087 28.3881C76.3172 29.1753 77.3134 29.5674 78.6 29.5674Z" fill="#1A1A1A"/>
<path d="M87.4577 33.2022L93.6355 24.8532L87.6541 16.6025H93.0799L96.6746 21.678L100.303 16.6025H105.304L99.3222 24.8208L105.5 33.2022H100.042L96.2508 27.996L92.5242 33.2022H87.4577Z" fill="#1A1A1A"/>
<path d="M28.3653 33.5957C26.4473 33.5957 24.9011 33.0827 23.7239 32.0566C22.5467 31.0306 21.9588 29.4043 21.9588 27.1779V16.6025H26.502V26.4245C26.502 27.5167 26.763 28.3122 27.2863 28.814C27.8097 29.3158 28.5828 29.5674 29.607 29.5674C30.6748 29.5674 31.5236 29.2624 32.1564 28.6509C32.7878 28.0395 33.1049 27.0683 33.1049 25.7372V16.6025H37.6481V33.2036H33.2354V31.3047C32.0807 32.8311 30.4573 33.5957 28.3653 33.5957Z" fill="white"/>
</svg>
